<svg xmlns="http://www.w3.org/2000/svg" xmlns:xlink="http://www.w3.org/1999/xlink" version="1.1" id="Layer_1" x="0px" y="0px" viewBox="0 0 424.5 427.5" style="enable-background:new 0 0 424.5 427.5;" xml:space="preserve" width="48">
<style type="text/css">
	.st0{fill:#ffffff;}
</style>
<g>
	<path class="st0" d="M305.7,234.1c0-39.2,0.2-76.8-0.3-114.4c-0.1-4.6-2.7-10.4-6.1-13.5c-27.3-24.5-55-48.5-83.3-73.2   c-28.6,24.9-55.2,47.7-81.4,71.2c-4.1,3.7-8.2,9.9-8.3,15.1c-0.7,37.6-0.4,75.3-0.4,114.9C187.7,234.1,245.4,234.1,305.7,234.1z    M136.8,122.5c0.1-4.4,3.8-9.7,7.4-12.9C167.1,89.2,190.4,69.2,216,47c24.9,21.9,49.3,43,73.2,64.7c3.3,3,5.5,9,5.6,13.7   c0.5,32.3,0.3,64.7,0.3,99.2c-54.4,0-104.5,0-158.6,0C136.5,190.3,136.2,156.4,136.8,122.5z"/>
	<path class="st0" d="M161.4,170.8c1.4,0.2,2.8,0,4.1,0.4c0.9,0.2,1.9,0.9,2.2,1.6c1.3,2.9,2.4,5.9,3.7,9c-1.1,1.3-2.4,2.8-3.6,4.3   c-2.7,3.5-2.8,7.5,0.2,10.8c2.4,2.7,5,5.3,7.7,7.7c2.8,2.5,7.3,3.2,9.7,0.6c4.1-4.4,9.9-2.9,11.1-2.2c1.9,1.1,5.1,3,5,5.2   c0,0.8,0.1,1.7,0.2,2.5c0.5,4.6,3.6,7.6,8.2,7.8c3.3,0.1,6.6,0.1,9.9,0c4.6-0.1,8.1-3.2,8.1-7.8c-0.1-4.2,2.6-6.8,5.4-7.9   c1.8-0.6,6.8-1.3,9.6,1.4c3.6,3.4,8.1,3.1,11.7-0.3c2.3-2.1,4.5-4.3,6.5-6.6c3.3-3.6,3.4-7.7,0.4-11.5c-1.1-1.4-2.3-2.7-3.5-4.1   c1-2.4,2.4-4.6,2.9-6.9c0.7-3.1,2.3-3.9,5.3-3.9c6.4-0.2,9.3-3.3,9.4-9.6c0-2.8,0.1-5.5,0-8.3c-0.3-4.9-2.8-8.1-7.6-8.3   c-4.5-0.2-6.4-1.9-8-6.1c-1.4-3.7-1.7-6.1,1.3-9.1c3.6-3.6,3.2-8-0.3-11.7c-2.2-2.3-4.4-4.6-6.8-6.8c-3.3-3-7.9-3.4-11-0.3   c-3.1,3.1-6.8,1.8-10.1,1c-2.7-0.6-5.3-3.1-5.3-7.1c0-4.7-3.5-7.8-8.3-7.9c-3.2-0.1-6.4-0.1-9.6,0c-4.8,0.1-8.2,3.2-8.2,8   c0,5.5-4.1,6.5-5.9,7.3c-3.3,1.5-6.2,2-9.3-1.1c-3.3-3.3-7.8-3-11.2,0.1c-2.5,2.3-4.9,4.7-7.2,7.2c-2.9,3.2-3.4,7.6-0.4,10.4   c3.6,3.5,4,6.7,1.3,10.7c-0.1,0.1-0.1,0.2-0.1,0.3c-0.6,3.5-2.5,4.7-6.1,4.8c-5.8,0.2-8.7,3.4-8.9,8.8c-0.1,3.1-0.1,6.2,0,9.3   C154.2,167.2,156.9,170.1,161.4,170.8z M163.6,155.4c0.1-0.6,1.3-1.5,1.9-1.4c7.4,0.8,11-2.6,12.1-9.7c0.4-2.5,2.1-4.9,3.4-7.2   c2.1-3.8,2-4.9-0.8-8.3c-1.3-1.5-2.6-3.1-4-4.6c1.7-1.7,3.4-3.4,5.2-5.2c1.8,1.5,3.6,3,5.3,4.6c2.1,1.9,4.3,1.9,6.8,0.7   c4.2-2,8.5-3.8,12.9-5.4c2.8-1,4.3-2.6,4.4-5.5c0.1-2.2,0.3-4.4,0.5-6.8c2.5,0,4.8,0,7.3,0c0.2,2.5,0.4,4.8,0.6,7.1   c0.2,2.7,1.5,4.2,4,5.1c4.6,1.7,9.1,3.6,13.5,5.6c2.3,1,4.3,1,6.2-0.6c1.8-1.6,3.7-3.2,5.4-4.7c1.8,1.8,3.5,3.4,5.3,5.1   c-1.5,1.7-3,3.5-4.6,5.2c-1.8,2.1-2,4.1-0.8,6.7c2.1,4.3,3.8,8.8,5.5,13.2c0.9,2.3,2.2,3.8,4.8,4.1c2.4,0.2,4.9,0.4,7.5,0.6   c0,2.4,0,4.7,0,7.2c-2.5,0.2-4.9,0.5-7.3,0.7c-2.7,0.2-4.1,1.7-5,4.2c-1.6,4.4-3.3,8.7-5.3,12.9c-1.3,2.7-1.3,4.8,0.7,7   c1.5,1.7,2.9,3.4,4.5,5.1c-1.7,1.6-3.4,3.2-5.4,5c-1.4-1.2-3.2-2.7-4.9-4.2c-2.2-2-4.4-2-7-0.8c-4.2,2-8.5,3.8-12.9,5.4   c-2.7,0.9-4.1,2.4-4.3,5.3c-0.1,2.2-0.3,4.5-0.5,7c-2.5,0-4.7,0-7.3,0c-0.2-2.4-0.4-4.7-0.5-7c-0.2-2.8-1.6-4.3-4.3-5.3   c-4.4-1.5-8.7-3.4-12.9-5.4c-2.7-1.3-4.8-1.2-7,0.7c-1.6,1.5-3.4,2.9-5,4.3c-1.7-1.8-3.3-3.4-5.2-5.3c1.3-1.5,2.9-3.3,4.5-5.2   c1.7-2,1.8-4,0.7-6.5c-2-4.3-3.8-8.7-5.5-13.2c-0.9-2.5-2.3-4-5-4.1c-2.3-0.1-4.7-0.4-7.5-0.6C163.5,159.3,163.3,157.3,163.6,155.4   z"/>
	<path class="st0" d="M214.9,182.7c13.8,0,25-11.2,25.1-25c0.1-13.8-11.3-25.2-25.2-25.2c-13.8,0-25.1,11.2-25.1,25   C189.6,171.5,200.9,182.8,214.9,182.7z M214.9,142.2c8.5,0,15.4,6.9,15.5,15.4c0.1,8.6-7,15.6-15.6,15.6c-8.5,0-15.4-6.9-15.5-15.4   C199.2,149.2,206.2,142.2,214.9,142.2z"/>
	<path class="st0" d="M138.4,345.6c0.1-0.5,0.1-0.9,0-1.4c-1.9-12.4-7.5-22.2-16.7-29c-2.2-1.6-4.6-3-6.9-4.3   c-0.2-0.1-0.4-0.2-0.6-0.4c7.9-6.6,11.6-15.4,11.2-26.2c-0.5-12.1-8.7-23.2-19.9-27.2c-1.9-0.7-3.8-1.1-5.7-1.4   c-0.8-0.2-1.7-0.3-2.5-0.5l-0.2-0.1h-4.4l-0.2,0c-0.5,0.1-1,0.2-1.6,0.3c-1.2,0.2-2.4,0.4-3.6,0.7c-12.4,3.1-21.5,13.9-22.7,26.8   c-1,11.2,2.7,20.5,11.2,27.6c-1.5,0.8-3.1,1.6-4.6,2.6c-11.1,7.2-17.6,17.5-19.4,30.8c-0.1,0.5-0.1,1,0,1.5c-0.1,0.5-0.2,1-0.2,1.5   c0,2.8,0.1,5.6,0.3,8.3c0,0.4,0.1,0.8,0.2,1.2c-0.2,1.6,0.2,3.2,1.1,4.4c1,1.3,2.5,2,4.2,2h0l75.2-0.1c2,0,3.7-1,4.6-2.7   c0.8-1,1.3-2.2,1.3-3.5l0.1-6.2c0-0.3,0-0.5,0-0.8C138.7,348.3,138.7,347,138.4,345.6z M74.9,286.3c0.1-11,9.1-20,20.2-20v-2l0,2   c10.8,0,19.9,9.1,19.9,19.9c0,5.4-2.1,10.5-5.9,14.4c-3.8,3.8-8.8,6-14.2,6c-5.3,0-10.4-2.2-14.2-6C77,296.7,74.9,291.6,74.9,286.3   z M127.7,350c0,0.4,0,0.8,0,1.2l0,0.6l-64.9,0.1c-0.1-1.4-0.1-2.7-0.1-4c0.6-1.1,0.7-2.4,0.7-3.9c0-1,0.2-2,0.6-3.4   c3.6-12.9,14.3-21.7,27.9-22.9c1.2-0.1,2.5-0.2,3.7-0.2c10.6,0,19.4,4.5,26.1,13.3c3.2,4.2,5,9,5.5,14.2c0,0.4,0.1,0.8,0.2,1.2   c0,0.4,0.1,0.9,0.3,1.2C127.8,348.1,127.7,349.1,127.7,350z"/>
	<path class="st0" d="M380,345.6c0.1-0.5,0.1-0.9,0-1.4c-1.9-12.4-7.5-22.2-16.7-29c-2.2-1.6-4.6-3-6.9-4.3   c-0.2-0.1-0.4-0.2-0.6-0.4c7.9-6.6,11.6-15.4,11.2-26.2c-0.5-12.1-8.7-23.2-19.9-27.2c-1.9-0.7-3.8-1.1-5.7-1.4   c-0.8-0.2-1.7-0.3-2.5-0.5l-0.2-0.1h-4.4l-0.2,0c-0.5,0.1-1,0.2-1.6,0.3c-1.2,0.2-2.4,0.4-3.6,0.7c-12.4,3.1-21.5,13.9-22.7,26.8   c-1,11.2,2.7,20.5,11.2,27.6c-1.5,0.8-3.1,1.6-4.6,2.6c-11.1,7.2-17.6,17.5-19.4,30.8c-0.1,0.5-0.1,1,0,1.5c-0.1,0.5-0.2,1-0.2,1.5   c0,2.8,0.1,5.6,0.3,8.3c0,0.4,0.1,0.8,0.2,1.2c-0.2,1.6,0.2,3.2,1.1,4.4c1,1.3,2.5,2,4.2,2h0l75.2-0.1c2,0,3.7-1,4.6-2.7   c0.8-1,1.3-2.2,1.3-3.5l0.1-6.2c0-0.3,0-0.5,0-0.8C380.3,348.3,380.3,347,380,345.6z M316.5,286.3c0.1-11,9.1-20,20.2-20v-2l0,2   c10.8,0,19.9,9.1,19.9,19.9c0,5.4-2.1,10.5-5.9,14.4c-3.8,3.8-8.8,6-14.2,6c-5.3,0-10.4-2.2-14.2-6   C318.6,296.7,316.5,291.6,316.5,286.3z M369.2,350c0,0.4,0,0.8,0,1.2l0,0.6l-64.9,0.1c-0.1-1.4-0.1-2.7-0.1-4   c0.6-1.1,0.7-2.4,0.7-3.9c0-1,0.2-2,0.6-3.4c3.6-12.9,14.3-21.7,27.9-22.9c1.2-0.1,2.5-0.2,3.7-0.2c10.6,0,19.4,4.5,26.1,13.3   c3.2,4.2,5,9,5.5,14.2c0,0.4,0.1,0.8,0.2,1.2c0,0.4,0.1,0.9,0.3,1.2C369.4,348.1,369.3,349.1,369.2,350z"/>
	<g>
		<path class="st0" d="M289.6,334.8L243.3,308l0,21h-22.5v-54.5h-11V329H187l0-21.1l-46.2,26.8l46.4,26.6l-0.1-22.4h56.2l-0.1,22.5    L289.6,334.8z M251.8,322.7l20.8,12.1l-20.9,12L251.8,322.7z M157.7,334.7l20.8-12.1l0.1,24.1L157.7,334.7z"/>
		<rect x="209.7" y="253.5" class="st0" width="11" height="11.8"/>
	</g>
</g>
</svg>
