<?xml version="1.0" encoding="utf-8"?>
<!-- Generator: Adobe Illustrator 19.0.1, SVG Export Plug-In . SVG Version: 6.00 Build 0)  -->
<svg version="1.1" id="Layer_1" xmlns="http://www.w3.org/2000/svg" xmlns:xlink="http://www.w3.org/1999/xlink" x="0px" y="0px"
	 viewBox="0 0 403 124.5" style="enable-background:new 0 0 403 124.5;" xml:space="preserve">
<style type="text/css">
	.st0{fill:url(#SVGID_1_);}
	.st1{fill:url(#SVGID_2_);}
	.st2{fill:url(#SVGID_3_);}
	.st3{fill:#3EBBEC;}
	.st4{fill:url(#SVGID_4_);}
	.st5{fill:#5A78BA;}
	.st6{fill:url(#SVGID_5_);}
	.st7{fill:#3853A3;}
	.st8{fill:#404241;}
	.st9{fill:url(#SVGID_6_);}
	.st10{fill:url(#SVGID_7_);}
	.st11{fill:url(#SVGID_8_);}
	.st12{fill:url(#SVGID_9_);}
	.st13{fill:url(#SVGID_10_);}
</style>
<g>
	<path class="st8" d="M195.6,50.7c0,0.4-0.1,0.8-0.4,1.1c-0.3,0.3-0.7,0.4-1.1,0.4c-0.2,0-0.4,0-0.6-0.1c-0.2-0.1-0.3-0.2-0.5-0.3
		c-0.1-0.1-0.2-0.2-0.3-0.3c-0.9-1.1-1.8-1.9-2.7-2.6c-0.9-0.6-1.9-1.1-2.9-1.4c-1-0.3-2.1-0.5-3.2-0.6c-1.1-0.1-2.4-0.1-3.7-0.1
		h-6.5v3.9c0,0.4-0.2,0.8-0.5,1.1c-0.3,0.3-0.7,0.4-1.1,0.4c-0.4,0-0.8-0.1-1.1-0.4c-0.3-0.3-0.4-0.7-0.4-1.1v-8.2
		c0-0.6,0.1-1.2,0.4-1.7c0.2-0.5,0.5-0.9,0.9-1.3c0.4-0.4,0.8-0.6,1.2-0.8c0.5-0.2,0.9-0.3,1.4-0.3h16.7c0.6,0,1.2,0.1,1.7,0.3
		c0.5,0.2,1,0.5,1.4,0.9c0.4,0.4,0.7,0.8,1,1.3c0.2,0.5,0.4,1.1,0.4,1.7c0,0.4-0.1,0.8-0.4,1.1c-0.3,0.3-0.7,0.4-1.1,0.4
		c-0.4,0-0.8-0.1-1.1-0.4c-0.3-0.3-0.4-0.7-0.4-1.1c0-0.3-0.1-0.6-0.3-0.8c-0.2-0.2-0.5-0.3-0.8-0.4h-16.8c-0.3,0-0.5,0.1-0.7,0.2
		c-0.2,0.1-0.3,0.3-0.3,0.5v1.7h6.5c1.9,0,3.6,0.1,5.1,0.3c1.5,0.2,2.9,0.6,4.1,1c1.2,0.5,2.3,1.1,3.3,1.9c1,0.8,1.8,1.7,2.6,2.9
		C195.5,50.1,195.6,50.4,195.6,50.7z"/>
	<path class="st8" d="M198.8,39.8c0-0.4,0.1-0.8,0.4-1.1c0.3-0.3,0.7-0.4,1.1-0.4H223c0.4,0,0.8,0.2,1.1,0.4
		c0.3,0.3,0.4,0.7,0.4,1.1c0,0.4-0.1,0.8-0.4,1.1c-0.3,0.3-0.7,0.4-1.1,0.4h-22.7c-0.4,0-0.8-0.1-1.1-0.4
		C198.9,40.6,198.8,40.2,198.8,39.8z M202.7,52.2c-0.5,0-0.9-0.1-1.4-0.3c-0.5-0.2-0.9-0.5-1.2-0.8c-0.4-0.4-0.7-0.8-0.9-1.3
		c-0.2-0.5-0.4-1.1-0.4-1.7v-2.9c0-0.6,0.2-1,0.5-1.2c0.3-0.2,0.8-0.3,1.6-0.3h21.5c0.4,0,0.8,0.1,1.1,0.4c0.3,0.3,0.4,0.7,0.4,1.1
		s-0.1,0.8-0.4,1.1c-0.3,0.3-0.7,0.4-1.1,0.4h-20.5v1.6c0,0.2,0.1,0.4,0.3,0.6c0.2,0.2,0.4,0.2,0.7,0.2H223c0.4,0,0.8,0.1,1.1,0.4
		c0.3,0.3,0.4,0.7,0.4,1.1c0,0.4-0.1,0.8-0.4,1.1c-0.3,0.3-0.7,0.4-1.1,0.4H202.7z"/>
	<path class="st8" d="M230.5,51.6c-0.3,0.4-0.7,0.6-1.2,0.6c-0.4,0-0.8-0.1-1.1-0.4c-0.3-0.3-0.4-0.7-0.4-1.1c0-0.4,0.1-0.7,0.3-0.9
		l7.8-10.5c0.4-0.5,0.8-0.9,1.4-1.2c0.6-0.3,1.2-0.5,1.9-0.5c0.6,0,1.2,0.1,1.8,0.4c0.6,0.3,1,0.7,1.4,1.2l7.8,10.4
		c0.1,0.1,0.2,0.3,0.3,0.5c0.1,0.2,0.1,0.4,0.1,0.6c0,0.4-0.1,0.8-0.4,1.1c-0.3,0.3-0.7,0.4-1.1,0.4c-0.5,0-0.9-0.2-1.2-0.6l-7.5-10
		c-0.2-0.2-0.3-0.4-0.6-0.6c-0.2-0.2-0.5-0.3-0.7-0.3c-0.2,0-0.5,0.1-0.7,0.3c-0.2,0.2-0.4,0.4-0.5,0.6L230.5,51.6z"/>
	<path class="st8" d="M253.1,45.2c0-0.8,0.1-1.6,0.4-2.4c0.3-0.8,0.7-1.6,1.2-2.2c0.5-0.7,1.1-1.2,1.9-1.6c0.7-0.4,1.5-0.6,2.5-0.6
		h18.7c0.4,0,0.8,0.2,1.1,0.4c0.3,0.3,0.4,0.7,0.4,1.1c0,0.4-0.1,0.8-0.4,1.1c-0.3,0.3-0.7,0.4-1.1,0.4h-18c-0.7,0-1.3,0.1-1.8,0.4
		c-0.5,0.3-0.8,0.6-1.1,1s-0.4,0.8-0.5,1.3c-0.1,0.5-0.1,0.9-0.1,1.3s0,0.8,0.1,1.3c0.1,0.5,0.3,0.9,0.5,1.3s0.6,0.7,1.1,1
		c0.5,0.3,1.1,0.4,1.8,0.4h18c0.4,0,0.8,0.1,1.1,0.4c0.3,0.3,0.4,0.7,0.4,1.1c0,0.4-0.1,0.8-0.4,1.1c-0.3,0.3-0.7,0.4-1.1,0.4h-19
		c-0.9,0-1.7-0.2-2.3-0.6c-0.7-0.4-1.3-1-1.7-1.6c-0.5-0.7-0.8-1.4-1.1-2.3C253.2,46.8,253.1,46,253.1,45.2z"/>
	<path class="st8" d="M307,38.7c0.3,0.3,0.4,0.7,0.4,1.1c0,0.4-0.1,0.8-0.4,1.1c-0.3,0.3-0.7,0.4-1.1,0.4h-9.5v9.3
		c0,0.4-0.1,0.8-0.4,1.1c-0.3,0.3-0.7,0.4-1.1,0.4c-0.4,0-0.8-0.1-1.1-0.4c-0.3-0.3-0.4-0.7-0.4-1.1v-9.3h-9.6c-0.4,0-0.7-0.2-1-0.5
		c-0.3-0.3-0.4-0.6-0.4-1c0-0.4,0.1-0.8,0.4-1.1c0.3-0.3,0.7-0.4,1.1-0.4h22C306.3,38.3,306.7,38.4,307,38.7z"/>
	<path class="st8" d="M313.3,51.8c-0.3,0.3-0.7,0.4-1.1,0.4c-0.4,0-0.8-0.1-1.1-0.4c-0.3-0.3-0.4-0.7-0.4-1.1V39.8
		c0-0.4,0.1-0.8,0.4-1.1c0.3-0.3,0.7-0.4,1.1-0.4c0.4,0,0.8,0.2,1.1,0.4c0.3,0.3,0.4,0.7,0.4,1.1v10.9
		C313.7,51.1,313.6,51.5,313.3,51.8z"/>
	<path class="st8" d="M337.1,38.8c0.3-0.4,0.7-0.6,1.2-0.6c0.4,0,0.8,0.2,1.1,0.4c0.3,0.3,0.4,0.7,0.4,1.1c0,0.4-0.1,0.7-0.3,0.9
		l0,0l-7.7,10.4c-0.4,0.5-0.9,0.9-1.5,1.2c-0.6,0.3-1.2,0.5-1.9,0.5c-0.6,0-1.2-0.1-1.8-0.4c-0.6-0.3-1-0.7-1.4-1.2l-7.8-10.4
		c-0.1-0.1-0.2-0.3-0.3-0.5c-0.1-0.2-0.1-0.4-0.1-0.6c0-0.4,0.1-0.8,0.4-1.1c0.3-0.3,0.7-0.4,1.1-0.4c0.5,0,0.9,0.2,1.2,0.6l7.5,10
		c0.1,0.2,0.3,0.4,0.6,0.6c0.2,0.2,0.5,0.3,0.7,0.3c0.2,0,0.5-0.1,0.7-0.3c0.2-0.2,0.4-0.4,0.5-0.6L337.1,38.8z"/>
	<path class="st8" d="M343,39.8c0-0.4,0.1-0.8,0.4-1.1c0.3-0.3,0.7-0.4,1.1-0.4h22.7c0.4,0,0.8,0.2,1.1,0.4c0.3,0.3,0.4,0.7,0.4,1.1
		c0,0.4-0.1,0.8-0.4,1.1c-0.3,0.3-0.7,0.4-1.1,0.4h-22.7c-0.4,0-0.8-0.1-1.1-0.4C343.2,40.6,343,40.2,343,39.8z M346.9,52.2
		c-0.5,0-0.9-0.1-1.4-0.3c-0.5-0.2-0.9-0.5-1.2-0.8c-0.4-0.4-0.7-0.8-0.9-1.3c-0.2-0.5-0.4-1.1-0.4-1.7v-2.9c0-0.6,0.2-1,0.5-1.2
		c0.3-0.2,0.8-0.3,1.6-0.3h21.5c0.4,0,0.8,0.1,1.1,0.4c0.3,0.3,0.4,0.7,0.4,1.1s-0.1,0.8-0.4,1.1c-0.3,0.3-0.7,0.4-1.1,0.4h-20.5
		v1.6c0,0.2,0.1,0.4,0.3,0.6c0.2,0.2,0.4,0.2,0.7,0.2h20.2c0.4,0,0.8,0.1,1.1,0.4c0.3,0.3,0.4,0.7,0.4,1.1c0,0.4-0.1,0.8-0.4,1.1
		c-0.3,0.3-0.7,0.4-1.1,0.4H346.9z"/>
	<path class="st8" d="M173.1,80.2c-0.5-0.2-1-0.5-1.3-0.9c-0.4-0.4-0.7-0.8-0.9-1.3c-0.2-0.5-0.3-1.1-0.3-1.7c0-0.6,0.1-1.2,0.3-1.7
		c0.2-0.5,0.5-1,0.9-1.3c0.4-0.4,0.8-0.7,1.3-0.9c0.5-0.2,1.1-0.3,1.7-0.3h19.4c0.4,0,0.8,0.2,1.1,0.4c0.3,0.3,0.4,0.7,0.4,1.1
		c0,0.4-0.1,0.8-0.4,1.1c-0.3,0.3-0.7,0.4-1.1,0.4h-19.5c-0.3,0-0.6,0.1-0.8,0.3c-0.2,0.2-0.4,0.5-0.4,0.8c0,0.3,0.1,0.6,0.4,0.8
		c0.2,0.2,0.5,0.4,0.8,0.4h17.7c0.6,0,1.2,0.1,1.7,0.3c0.5,0.2,1,0.5,1.4,0.9c0.4,0.4,0.7,0.8,0.9,1.4c0.2,0.5,0.3,1.1,0.3,1.7
		c0,0.6-0.1,1.2-0.3,1.7c-0.2,0.5-0.5,1-0.9,1.3c-0.4,0.4-0.8,0.7-1.4,0.9c-0.5,0.2-1.1,0.3-1.7,0.3h-19.4c-0.4,0-0.8-0.1-1.1-0.4
		c-0.3-0.3-0.4-0.7-0.4-1.1c0-0.4,0.1-0.8,0.4-1.1c0.3-0.3,0.7-0.4,1.1-0.4h19.5c0.3,0,0.6-0.1,0.8-0.3c0.2-0.2,0.4-0.5,0.4-0.8
		c0-0.3-0.1-0.6-0.4-0.9c-0.2-0.2-0.5-0.4-0.8-0.4h-17.8C174.2,80.6,173.7,80.4,173.1,80.2z"/>
	<path class="st8" d="M224.6,72.5c0.3,0.3,0.4,0.7,0.4,1.1c0,0.4-0.1,0.8-0.4,1.1c-0.3,0.3-0.7,0.4-1.1,0.4H214v9.3
		c0,0.4-0.1,0.8-0.4,1.1c-0.3,0.3-0.7,0.4-1.1,0.4c-0.4,0-0.8-0.1-1.1-0.4c-0.3-0.3-0.4-0.7-0.4-1.1v-9.3h-9.6c-0.4,0-0.7-0.2-1-0.5
		c-0.3-0.3-0.4-0.6-0.4-1c0-0.4,0.1-0.8,0.4-1.1c0.3-0.3,0.7-0.4,1.1-0.4h22C223.9,72,224.3,72.2,224.6,72.5z"/>
	<path class="st8" d="M226.9,85.4c-0.3,0.4-0.7,0.6-1.2,0.6c-0.4,0-0.8-0.1-1.1-0.4c-0.3-0.3-0.4-0.7-0.4-1.1c0-0.4,0.1-0.7,0.3-0.9
		l7.8-10.5c0.4-0.5,0.8-0.9,1.4-1.2c0.6-0.3,1.2-0.5,1.9-0.5c0.6,0,1.2,0.1,1.8,0.4c0.6,0.3,1,0.7,1.4,1.2l7.8,10.4
		c0.1,0.1,0.2,0.3,0.3,0.5c0.1,0.2,0.1,0.4,0.1,0.6c0,0.4-0.1,0.8-0.4,1.1c-0.3,0.3-0.7,0.4-1.1,0.4c-0.5,0-0.9-0.2-1.2-0.6l-7.5-10
		c-0.2-0.2-0.3-0.4-0.6-0.6c-0.2-0.2-0.5-0.3-0.7-0.3c-0.2,0-0.5,0.1-0.7,0.3c-0.2,0.2-0.4,0.4-0.5,0.6L226.9,85.4z"/>
	<path class="st8" d="M271,72.5c0.3,0.3,0.4,0.7,0.4,1.1c0,0.4-0.1,0.8-0.4,1.1c-0.3,0.3-0.7,0.4-1.1,0.4h-9.5v9.3
		c0,0.4-0.1,0.8-0.4,1.1c-0.3,0.3-0.7,0.4-1.1,0.4c-0.4,0-0.8-0.1-1.1-0.4c-0.3-0.3-0.4-0.7-0.4-1.1v-9.3h-9.6c-0.4,0-0.7-0.2-1-0.5
		c-0.3-0.3-0.4-0.6-0.4-1c0-0.4,0.1-0.8,0.4-1.1c0.3-0.3,0.7-0.4,1.1-0.4h22C270.3,72,270.7,72.2,271,72.5z"/>
	<path class="st8" d="M277.3,85.5c-0.3,0.3-0.7,0.4-1.1,0.4c-0.4,0-0.8-0.1-1.1-0.4c-0.3-0.3-0.4-0.7-0.4-1.1V73.6
		c0-0.4,0.1-0.8,0.4-1.1c0.3-0.3,0.7-0.4,1.1-0.4c0.4,0,0.8,0.2,1.1,0.4c0.3,0.3,0.4,0.7,0.4,1.1v10.9
		C277.7,84.9,277.6,85.2,277.3,85.5z"/>
	<path class="st8" d="M307,79c0,0.8-0.1,1.6-0.4,2.4c-0.3,0.8-0.7,1.6-1.2,2.2c-0.5,0.7-1.1,1.2-1.9,1.6c-0.7,0.4-1.5,0.6-2.5,0.6
		h-14.6c-0.9,0-1.7-0.3-2.3-0.7c-0.7-0.4-1.3-1-1.7-1.6c-0.5-0.7-0.8-1.4-1.1-2.2c-0.3-0.8-0.4-1.6-0.4-2.4c0-0.8,0.1-1.6,0.4-2.4
		c0.3-0.8,0.7-1.6,1.2-2.2c0.5-0.7,1.1-1.2,1.9-1.6c0.7-0.4,1.5-0.6,2.5-0.6h14.6c0.9,0,1.7,0.3,2.3,0.7c0.7,0.4,1.3,1,1.7,1.6
		s0.8,1.4,1.1,2.2C306.8,77.4,307,78.2,307,79z M302.2,82.5c0.5-0.3,0.8-0.6,1.1-1c0.3-0.4,0.4-0.8,0.5-1.3c0.1-0.5,0.1-0.9,0.1-1.3
		c0-0.4,0-0.8-0.1-1.3c-0.1-0.5-0.3-0.9-0.5-1.3c-0.3-0.4-0.6-0.7-1.1-1c-0.5-0.3-1.1-0.4-1.8-0.4h-12.9c-0.7,0-1.3,0.1-1.8,0.4
		c-0.5,0.3-0.8,0.6-1.1,1s-0.4,0.8-0.5,1.3c-0.1,0.5-0.1,0.9-0.1,1.3c0,0.4,0,0.8,0.1,1.3c0.1,0.5,0.3,0.9,0.5,1.3
		c0.3,0.4,0.6,0.7,1.1,1c0.5,0.3,1.1,0.4,1.8,0.4h12.9C301.1,82.9,301.7,82.8,302.2,82.5z"/>
	<path class="st8" d="M332.4,72.5c0.3-0.3,0.7-0.4,1.1-0.4c0.4,0,0.8,0.2,1.1,0.4c0.3,0.3,0.4,0.7,0.4,1.1v9.3
		c0,0.9-0.3,1.6-0.9,2.2c-0.6,0.6-1.3,0.9-2.2,0.9c-0.3,0-0.6,0-0.9-0.1c-0.3-0.1-0.5-0.2-0.8-0.4l-14.7-9c-0.4-0.2-0.7-0.4-1-0.6
		c-0.3-0.1-0.5-0.2-0.7-0.2c-0.3,0-0.5,0.2-0.6,0.6c-0.1,0.4-0.1,1-0.1,1.8v6.3c0,0.4-0.1,0.8-0.4,1.1c-0.3,0.3-0.7,0.4-1.1,0.4
		c-0.4,0-0.8-0.1-1.1-0.4c-0.3-0.3-0.4-0.7-0.4-1.1v-9.3c0-0.9,0.3-1.6,0.9-2.2c0.6-0.6,1.3-0.9,2.2-0.9c0.3,0,0.6,0,0.9,0.1
		c0.3,0.1,0.5,0.2,0.8,0.4l14.7,9c0.4,0.2,0.7,0.4,1,0.6c0.3,0.1,0.5,0.2,0.7,0.2c0.3,0,0.5-0.2,0.6-0.6c0.1-0.4,0.1-1,0.1-1.8v-6.3
		C332,73.2,332.1,72.8,332.4,72.5z"/>
</g>
<circle class="st8" cx="93.7" cy="63.3" r="52.4"/>
<g>
	<radialGradient id="SVGID_1_" cx="95.1924" cy="61.8082" r="7.6462" gradientUnits="userSpaceOnUse">
		<stop  offset="5.102040e-003" style="stop-color:#FFFFFF"/>
		<stop  offset="0.9592" style="stop-color:#BBBDBF;stop-opacity:0.9041"/>
	</radialGradient>
	<circle class="st0" cx="95.2" cy="61.8" r="7.6"/>
	<radialGradient id="SVGID_2_" cx="95.1924" cy="61.8082" r="7.6462" gradientUnits="userSpaceOnUse">
		<stop  offset="5.102040e-003" style="stop-color:#FFFFFF"/>
		<stop  offset="0.5408" style="stop-color:#BBBDBF;stop-opacity:0.9041"/>
		<stop  offset="1" style="stop-color:#26A9E0;stop-opacity:0.9041"/>
	</radialGradient>
	<circle class="st1" cx="95.2" cy="61.8" r="7.6"/>
</g>
<g>
	<g>
		<linearGradient id="SVGID_3_" gradientUnits="userSpaceOnUse" x1="69.4117" y1="62.6772" x2="118.4304" y2="62.6772">
			<stop  offset="5.102040e-003" style="stop-color:#FFFFFF"/>
			<stop  offset="0.9592" style="stop-color:#929497;stop-opacity:0.9041"/>
		</linearGradient>
		<path class="st2" d="M74.4,28.9c-9.4,5.4-4.4,25.2,5.2,42c9.7,16.8,24.4,31,33.8,25.6c9.4-5.4,4.4-25.2-5.2-42
			C98.5,37.7,83.8,23.5,74.4,28.9z M111.6,93.3c-6.2,3.6-19.1-7.3-28.8-24.2C73,52.2,70.1,35.6,76.2,32c6.2-3.6,19.1,7.3,28.8,24.2
			C114.8,73.2,117.8,89.8,111.6,93.3z"/>
	</g>
	<g>
		<path class="st3" d="M74.4,28.9c-9.4,5.4-4.4,25.2,5.2,42c9.7,16.8,24.4,31,33.8,25.6c9.4-5.4,4.4-25.2-5.2-42
			C98.5,37.7,83.8,23.5,74.4,28.9z M111.6,93.3c-6.2,3.6-19.1-7.3-28.8-24.2C73,52.2,70.1,35.6,76.2,32c6.2-3.6,19.1,7.3,28.8,24.2
			C114.8,73.2,117.8,89.8,111.6,93.3z"/>
	</g>
</g>
<g>
	<g>
		<linearGradient id="SVGID_4_" gradientUnits="userSpaceOnUse" x1="54.607" y1="62.4233" x2="132.6183" y2="62.4233">
			<stop  offset="5.102040e-003" style="stop-color:#FFFFFF"/>
			<stop  offset="0.9592" style="stop-color:#929497;stop-opacity:0.9041"/>
		</linearGradient>
		<path class="st4" d="M54.6,62.4c0,10.8,19.6,16.5,39,16.5c19.4,0,39-5.7,39-16.5c0-10.8-19.6-16.5-39-16.5
			C74.2,46,54.6,51.6,54.6,62.4z M129,62.4c0,7.1-15.9,12.9-35.4,12.9c-19.6,0-35.4-5.8-35.4-12.9s15.9-12.9,35.4-12.9
			C113.2,49.6,129,55.3,129,62.4z"/>
	</g>
	<g>
		<path class="st5" d="M54.6,62.4c0,10.8,19.6,16.5,39,16.5c19.4,0,39-5.7,39-16.5c0-10.8-19.6-16.5-39-16.5
			C74.2,46,54.6,51.6,54.6,62.4z M129,62.4c0,7.1-15.9,12.9-35.4,12.9c-19.6,0-35.4-5.8-35.4-12.9s15.9-12.9,35.4-12.9
			C113.2,49.6,129,55.3,129,62.4z"/>
	</g>
</g>
<g>
	<g>
		<linearGradient id="SVGID_5_" gradientUnits="userSpaceOnUse" x1="69.1305" y1="62.6772" x2="118.1491" y2="62.6772">
			<stop  offset="5.102040e-003" style="stop-color:#FFFFFF"/>
			<stop  offset="0.9592" style="stop-color:#929497;stop-opacity:0.9041"/>
		</linearGradient>
		<path class="st6" d="M113.1,28.9c-9.4-5.4-24.1,8.8-33.8,25.6c-9.7,16.8-14.6,36.6-5.2,42c9.4,5.4,24.1-8.8,33.8-25.6
			C117.6,54.1,122.5,34.3,113.1,28.9z M75.9,93.3c-6.2-3.6-3.2-20.2,6.6-37.1c9.8-16.9,22.7-27.8,28.8-24.2
			c6.2,3.6,3.2,20.2-6.6,37.1C95,86,82.1,96.9,75.9,93.3z"/>
	</g>
	<g>
		<path class="st7" d="M113.1,28.9c-9.4-5.4-24.1,8.8-33.8,25.6c-9.7,16.8-14.6,36.6-5.2,42c9.4,5.4,24.1-8.8,33.8-25.6
			C117.6,54.1,122.5,34.3,113.1,28.9z M75.9,93.3c-6.2-3.6-3.2-20.2,6.6-37.1c9.8-16.9,22.7-27.8,28.8-24.2
			c6.2,3.6,3.2,20.2-6.6,37.1C95,86,82.1,96.9,75.9,93.3z"/>
	</g>
</g>
</svg>
