<?xml version="1.0" encoding="utf-8"?>
<!-- Generator: Adobe Illustrator 19.0.1, SVG Export Plug-In . SVG Version: 6.00 Build 0)  -->
<svg version="1.1" id="Layer_1" xmlns="http://www.w3.org/2000/svg" xmlns:xlink="http://www.w3.org/1999/xlink" x="0px" y="0px"
	 viewBox="0 0 403 124.5" style="enable-background:new 0 0 403 124.5;" xml:space="preserve">
<style type="text/css">
	.st0{fill:url(#SVGID_1_);}
	.st1{fill:url(#SVGID_2_);}
	.st2{fill:url(#SVGID_3_);}
	.st3{fill:#3EBBEC;}
	.st4{fill:url(#SVGID_4_);}
	.st5{fill:#5A78BA;}
	.st6{fill:url(#SVGID_5_);}
	.st7{fill:#3853A3;}
	.st8{fill:#404241;}
	.st9{fill:url(#SVGID_6_);}
	.st10{fill:url(#SVGID_7_);}
	.st11{fill:url(#SVGID_8_);}
	.st12{fill:url(#SVGID_9_);}
	.st13{fill:url(#SVGID_10_);}
</style>
<g>
	<radialGradient id="SVGID_1_" cx="85.1932" cy="60.5509" r="9.5951" gradientUnits="userSpaceOnUse">
		<stop  offset="5.102040e-003" style="stop-color:#FFFFFF"/>
		<stop  offset="0.9592" style="stop-color:#BBBDBF;stop-opacity:0.9041"/>
	</radialGradient>
	<circle class="st0" cx="85.2" cy="60.6" r="9.6"/>
	<radialGradient id="SVGID_2_" cx="85.1932" cy="60.5509" r="9.5951" gradientUnits="userSpaceOnUse">
		<stop  offset="5.102040e-003" style="stop-color:#FFFFFF"/>
		<stop  offset="0.5408" style="stop-color:#BBBDBF;stop-opacity:0.9041"/>
		<stop  offset="1" style="stop-color:#26A9E0;stop-opacity:0.9041"/>
	</radialGradient>
	<circle class="st1" cx="85.2" cy="60.6" r="9.6"/>
</g>
<g>
	<g>
		<linearGradient id="SVGID_3_" gradientUnits="userSpaceOnUse" x1="52.8417" y1="61.6414" x2="114.3541" y2="61.6414">
			<stop  offset="5.102040e-003" style="stop-color:#FFFFFF"/>
			<stop  offset="0.9592" style="stop-color:#929497;stop-opacity:0.9041"/>
		</linearGradient>
		<path class="st2" d="M59.1,19.3C47.4,26,53.6,50.9,65.7,72C77.9,93,96.3,110.8,108.1,104c11.7-6.8,5.6-31.7-6.6-52.7
			C89.3,30.3,70.9,12.5,59.1,19.3z M105.8,100.1c-7.7,4.5-23.9-9.2-36.2-30.4c-12.3-21.3-16-42.1-8.2-46.5
			c7.7-4.5,23.9,9.2,36.2,30.4S113.5,95.7,105.8,100.1z"/>
	</g>
	<g>
		<path class="st3" d="M59.1,19.3C47.4,26,53.6,50.9,65.7,72C77.9,93,96.3,110.8,108.1,104c11.7-6.8,5.6-31.7-6.6-52.7
			C89.3,30.3,70.9,12.5,59.1,19.3z M105.8,100.1c-7.7,4.5-23.9-9.2-36.2-30.4c-12.3-21.3-16-42.1-8.2-46.5
			c7.7-4.5,23.9,9.2,36.2,30.4S113.5,95.7,105.8,100.1z"/>
	</g>
</g>
<g>
	<g>
		<linearGradient id="SVGID_4_" gradientUnits="userSpaceOnUse" x1="34.2636" y1="61.3227" x2="132.1582" y2="61.3227">
			<stop  offset="5.102040e-003" style="stop-color:#FFFFFF"/>
			<stop  offset="0.9592" style="stop-color:#929497;stop-opacity:0.9041"/>
		</linearGradient>
		<path class="st4" d="M34.3,61.3C34.3,74.9,58.9,82,83.2,82s48.9-7.1,48.9-20.7s-24.6-20.7-48.9-20.7S34.3,47.8,34.3,61.3z
			 M127.6,61.3c0,8.9-19.9,16.1-44.4,16.1c-24.5,0-44.4-7.2-44.4-16.1c0-8.9,19.9-16.1,44.4-16.1C107.7,45.2,127.6,52.4,127.6,61.3z
			"/>
	</g>
	<g>
		<path class="st5" d="M34.3,61.3C34.3,74.9,58.9,82,83.2,82s48.9-7.1,48.9-20.7s-24.6-20.7-48.9-20.7S34.3,47.8,34.3,61.3z
			 M127.6,61.3c0,8.9-19.9,16.1-44.4,16.1c-24.5,0-44.4-7.2-44.4-16.1c0-8.9,19.9-16.1,44.4-16.1C107.7,45.2,127.6,52.4,127.6,61.3z
			"/>
	</g>
</g>
<g>
	<g>
		<linearGradient id="SVGID_5_" gradientUnits="userSpaceOnUse" x1="52.4888" y1="61.6414" x2="114.0012" y2="61.6414">
			<stop  offset="5.102040e-003" style="stop-color:#FFFFFF"/>
			<stop  offset="0.9592" style="stop-color:#929497;stop-opacity:0.9041"/>
		</linearGradient>
		<path class="st6" d="M107.7,19.3c-11.7-6.8-30.2,11-42.4,32.1C53.2,72.4,47,97.3,58.8,104C70.5,110.8,89,93,101.1,72
			C113.3,50.9,119.5,26,107.7,19.3z M61,100.1c-7.7-4.5-4-25.3,8.2-46.5s28.5-34.9,36.2-30.4c7.7,4.5,4,25.3-8.2,46.5
			C84.9,91,68.7,104.6,61,100.1z"/>
	</g>
	<g>
		<path class="st7" d="M107.7,19.3c-11.7-6.8-30.2,11-42.4,32.1C53.2,72.4,47,97.3,58.8,104C70.5,110.8,89,93,101.1,72
			C113.3,50.9,119.5,26,107.7,19.3z M61,100.1c-7.7-4.5-4-25.3,8.2-46.5s28.5-34.9,36.2-30.4c7.7,4.5,4,25.3-8.2,46.5
			C84.9,91,68.7,104.6,61,100.1z"/>
	</g>
</g>
<g>
	<path class="st8" d="M186.4,53.6c0,0.4-0.1,0.8-0.4,1.1c-0.3,0.3-0.7,0.4-1.1,0.4c-0.2,0-0.4,0-0.6-0.1c-0.2-0.1-0.3-0.2-0.5-0.3
		c-0.1-0.1-0.2-0.2-0.3-0.3c-0.9-1.1-1.8-1.9-2.7-2.6c-0.9-0.6-1.9-1.1-2.9-1.4c-1-0.3-2.1-0.5-3.2-0.6c-1.1-0.1-2.4-0.1-3.7-0.1
		h-6.5v3.9c0,0.4-0.2,0.8-0.5,1.1c-0.3,0.3-0.7,0.4-1.1,0.4c-0.4,0-0.8-0.1-1.1-0.4c-0.3-0.3-0.4-0.7-0.4-1.1v-8.2
		c0-0.6,0.1-1.2,0.4-1.7c0.2-0.5,0.5-0.9,0.9-1.3c0.4-0.4,0.8-0.6,1.2-0.8c0.5-0.2,0.9-0.3,1.4-0.3H182c0.6,0,1.2,0.1,1.7,0.3
		c0.5,0.2,1,0.5,1.4,0.9c0.4,0.4,0.7,0.8,1,1.3c0.2,0.5,0.4,1.1,0.4,1.7c0,0.4-0.1,0.8-0.4,1.1c-0.3,0.3-0.7,0.4-1.1,0.4
		c-0.4,0-0.8-0.1-1.1-0.4c-0.3-0.3-0.4-0.7-0.4-1.1c0-0.3-0.1-0.6-0.3-0.8c-0.2-0.2-0.5-0.3-0.8-0.4h-16.8c-0.3,0-0.5,0.1-0.7,0.2
		c-0.2,0.1-0.3,0.3-0.3,0.5v1.7h6.5c1.9,0,3.6,0.1,5.1,0.3c1.5,0.2,2.9,0.6,4.1,1c1.2,0.5,2.3,1.1,3.3,1.9c1,0.8,1.8,1.7,2.6,2.9
		C186.3,53,186.4,53.3,186.4,53.6z"/>
	<path class="st8" d="M189.6,42.7c0-0.4,0.1-0.8,0.4-1.1c0.3-0.3,0.7-0.4,1.1-0.4h22.7c0.4,0,0.8,0.2,1.1,0.4
		c0.3,0.3,0.4,0.7,0.4,1.1c0,0.4-0.1,0.8-0.4,1.1c-0.3,0.3-0.7,0.4-1.1,0.4h-22.7c-0.4,0-0.8-0.1-1.1-0.4
		C189.7,43.5,189.6,43.2,189.6,42.7z M193.5,55.2c-0.5,0-0.9-0.1-1.4-0.3c-0.5-0.2-0.9-0.5-1.2-0.8c-0.4-0.4-0.7-0.8-0.9-1.3
		c-0.2-0.5-0.4-1.1-0.4-1.7v-2.9c0-0.6,0.2-1,0.5-1.2c0.3-0.2,0.8-0.3,1.6-0.3h21.5c0.4,0,0.8,0.1,1.1,0.4c0.3,0.3,0.4,0.7,0.4,1.1
		s-0.1,0.8-0.4,1.1c-0.3,0.3-0.7,0.4-1.1,0.4h-20.5v1.6c0,0.2,0.1,0.4,0.3,0.6c0.2,0.2,0.4,0.2,0.7,0.2h20.2c0.4,0,0.8,0.1,1.1,0.4
		c0.3,0.3,0.4,0.7,0.4,1.1c0,0.4-0.1,0.8-0.4,1.1c-0.3,0.3-0.7,0.4-1.1,0.4H193.5z"/>
	<path class="st8" d="M221.3,54.6c-0.3,0.4-0.7,0.6-1.2,0.6c-0.4,0-0.8-0.1-1.1-0.4c-0.3-0.3-0.4-0.7-0.4-1.1c0-0.4,0.1-0.7,0.3-0.9
		l7.8-10.5c0.4-0.5,0.8-0.9,1.4-1.2c0.6-0.3,1.2-0.5,1.9-0.5c0.6,0,1.2,0.1,1.8,0.4c0.6,0.3,1,0.7,1.4,1.2l7.8,10.4
		c0.1,0.1,0.2,0.3,0.3,0.5c0.1,0.2,0.1,0.4,0.1,0.6c0,0.4-0.1,0.8-0.4,1.1c-0.3,0.3-0.7,0.4-1.1,0.4c-0.5,0-0.9-0.2-1.2-0.6l-7.5-10
		c-0.2-0.2-0.3-0.4-0.6-0.6c-0.2-0.2-0.5-0.3-0.7-0.3c-0.2,0-0.5,0.1-0.7,0.3c-0.2,0.2-0.4,0.4-0.5,0.6L221.3,54.6z"/>
	<path class="st8" d="M243.8,48.2c0-0.8,0.1-1.6,0.4-2.4c0.3-0.8,0.7-1.6,1.2-2.2c0.5-0.7,1.1-1.2,1.9-1.6c0.7-0.4,1.5-0.6,2.5-0.6
		h18.7c0.4,0,0.8,0.2,1.1,0.4c0.3,0.3,0.4,0.7,0.4,1.1c0,0.4-0.1,0.8-0.4,1.1c-0.3,0.3-0.7,0.4-1.1,0.4h-18c-0.7,0-1.3,0.1-1.8,0.4
		c-0.5,0.3-0.8,0.6-1.1,1s-0.4,0.8-0.5,1.3c-0.1,0.5-0.1,0.9-0.1,1.3s0,0.8,0.1,1.3c0.1,0.5,0.3,0.9,0.5,1.3c0.3,0.4,0.6,0.7,1.1,1
		c0.5,0.3,1.1,0.4,1.8,0.4h18c0.4,0,0.8,0.1,1.1,0.4c0.3,0.3,0.4,0.7,0.4,1.1c0,0.4-0.1,0.8-0.4,1.1c-0.3,0.3-0.7,0.4-1.1,0.4h-19
		c-0.9,0-1.7-0.2-2.3-0.6c-0.7-0.4-1.3-1-1.7-1.6c-0.5-0.7-0.8-1.4-1.1-2.3C244,49.8,243.8,49,243.8,48.2z"/>
	<path class="st8" d="M297.8,41.7c0.3,0.3,0.4,0.7,0.4,1.1c0,0.4-0.1,0.8-0.4,1.1c-0.3,0.3-0.7,0.4-1.1,0.4h-9.5v9.3
		c0,0.4-0.1,0.8-0.4,1.1c-0.3,0.3-0.7,0.4-1.1,0.4c-0.4,0-0.8-0.1-1.1-0.4c-0.3-0.3-0.4-0.7-0.4-1.1v-9.3h-9.6c-0.4,0-0.7-0.2-1-0.5
		c-0.3-0.3-0.4-0.6-0.4-1c0-0.4,0.1-0.8,0.4-1.1c0.3-0.3,0.7-0.4,1.1-0.4h22C297.1,41.2,297.5,41.4,297.8,41.7z"/>
	<path class="st8" d="M304,54.7c-0.3,0.3-0.7,0.4-1.1,0.4c-0.4,0-0.8-0.1-1.1-0.4c-0.3-0.3-0.4-0.7-0.4-1.1V42.7
		c0-0.4,0.1-0.8,0.4-1.1c0.3-0.3,0.7-0.4,1.1-0.4c0.4,0,0.8,0.2,1.1,0.4c0.3,0.3,0.4,0.7,0.4,1.1v10.9C304.5,54,304.3,54.4,304,54.7
		z"/>
	<path class="st8" d="M327.9,41.8c0.3-0.4,0.7-0.6,1.2-0.6c0.4,0,0.8,0.2,1.1,0.4c0.3,0.3,0.4,0.7,0.4,1.1c0,0.4-0.1,0.7-0.3,0.9
		l0,0l-7.7,10.4c-0.4,0.5-0.9,0.9-1.5,1.2c-0.6,0.3-1.2,0.5-1.9,0.5c-0.6,0-1.2-0.1-1.8-0.4c-0.6-0.3-1-0.7-1.4-1.2l-7.8-10.4
		c-0.1-0.1-0.2-0.3-0.3-0.5c-0.1-0.2-0.1-0.4-0.1-0.6c0-0.4,0.1-0.8,0.4-1.1c0.3-0.3,0.7-0.4,1.1-0.4c0.5,0,0.9,0.2,1.2,0.6l7.5,10
		c0.1,0.2,0.3,0.4,0.6,0.6c0.2,0.2,0.5,0.3,0.7,0.3c0.2,0,0.5-0.1,0.7-0.3c0.2-0.2,0.4-0.4,0.5-0.6L327.9,41.8z"/>
	<path class="st8" d="M333.8,42.7c0-0.4,0.1-0.8,0.4-1.1c0.3-0.3,0.7-0.4,1.1-0.4H358c0.4,0,0.8,0.2,1.1,0.4
		c0.3,0.3,0.4,0.7,0.4,1.1c0,0.4-0.1,0.8-0.4,1.1c-0.3,0.3-0.7,0.4-1.1,0.4h-22.7c-0.4,0-0.8-0.1-1.1-0.4
		C334,43.5,333.8,43.2,333.8,42.7z M337.7,55.2c-0.5,0-0.9-0.1-1.4-0.3c-0.5-0.2-0.9-0.5-1.2-0.8c-0.4-0.4-0.7-0.8-0.9-1.3
		c-0.2-0.5-0.4-1.1-0.4-1.7v-2.9c0-0.6,0.2-1,0.5-1.2c0.3-0.2,0.8-0.3,1.6-0.3h21.5c0.4,0,0.8,0.1,1.1,0.4c0.3,0.3,0.4,0.7,0.4,1.1
		s-0.1,0.8-0.4,1.1c-0.3,0.3-0.7,0.4-1.1,0.4h-20.5v1.6c0,0.2,0.1,0.4,0.3,0.6c0.2,0.2,0.4,0.2,0.7,0.2H358c0.4,0,0.8,0.1,1.1,0.4
		c0.3,0.3,0.4,0.7,0.4,1.1c0,0.4-0.1,0.8-0.4,1.1c-0.3,0.3-0.7,0.4-1.1,0.4H337.7z"/>
	<path class="st8" d="M163.9,83.2c-0.5-0.2-1-0.5-1.3-0.9c-0.4-0.4-0.7-0.8-0.9-1.3c-0.2-0.5-0.3-1.1-0.3-1.7c0-0.6,0.1-1.2,0.3-1.7
		c0.2-0.5,0.5-1,0.9-1.3c0.4-0.4,0.8-0.7,1.3-0.9c0.5-0.2,1.1-0.3,1.7-0.3H185c0.4,0,0.8,0.2,1.1,0.4c0.3,0.3,0.4,0.7,0.4,1.1
		c0,0.4-0.1,0.8-0.4,1.1c-0.3,0.3-0.7,0.4-1.1,0.4h-19.5c-0.3,0-0.6,0.1-0.8,0.3c-0.2,0.2-0.4,0.5-0.4,0.8c0,0.3,0.1,0.6,0.4,0.8
		c0.2,0.2,0.5,0.4,0.8,0.4h17.7c0.6,0,1.2,0.1,1.7,0.3c0.5,0.2,1,0.5,1.4,0.9c0.4,0.4,0.7,0.8,0.9,1.4c0.2,0.5,0.3,1.1,0.3,1.7
		c0,0.6-0.1,1.2-0.3,1.7c-0.2,0.5-0.5,1-0.9,1.3c-0.4,0.4-0.8,0.7-1.4,0.9c-0.5,0.2-1.1,0.3-1.7,0.3h-19.4c-0.4,0-0.8-0.1-1.1-0.4
		c-0.3-0.3-0.4-0.7-0.4-1.1c0-0.4,0.1-0.8,0.4-1.1c0.3-0.3,0.7-0.4,1.1-0.4h19.5c0.3,0,0.6-0.1,0.8-0.3c0.2-0.2,0.4-0.5,0.4-0.8
		c0-0.3-0.1-0.6-0.4-0.9c-0.2-0.2-0.5-0.4-0.8-0.4h-17.8C165,83.5,164.4,83.4,163.9,83.2z"/>
	<path class="st8" d="M215.4,75.4c0.3,0.3,0.4,0.7,0.4,1.1c0,0.4-0.1,0.8-0.4,1.1s-0.7,0.4-1.1,0.4h-9.5v9.3c0,0.4-0.1,0.8-0.4,1.1
		c-0.3,0.3-0.7,0.4-1.1,0.4c-0.4,0-0.8-0.1-1.1-0.4c-0.3-0.3-0.4-0.7-0.4-1.1v-9.3h-9.6c-0.4,0-0.7-0.2-1-0.5
		c-0.3-0.3-0.4-0.6-0.4-1c0-0.4,0.1-0.8,0.4-1.1c0.3-0.3,0.7-0.4,1.1-0.4h22C214.7,75,215.1,75.1,215.4,75.4z"/>
	<path class="st8" d="M217.7,88.4c-0.3,0.4-0.7,0.6-1.2,0.6c-0.4,0-0.8-0.1-1.1-0.4c-0.3-0.3-0.4-0.7-0.4-1.1c0-0.4,0.1-0.7,0.3-0.9
		l7.8-10.5c0.4-0.5,0.8-0.9,1.4-1.2c0.6-0.3,1.2-0.5,1.9-0.5c0.6,0,1.2,0.1,1.8,0.4c0.6,0.3,1,0.7,1.4,1.2l7.8,10.4
		c0.1,0.1,0.2,0.3,0.3,0.5c0.1,0.2,0.1,0.4,0.1,0.6c0,0.4-0.1,0.8-0.4,1.1c-0.3,0.3-0.7,0.4-1.1,0.4c-0.5,0-0.9-0.2-1.2-0.6l-7.5-10
		c-0.2-0.2-0.3-0.4-0.6-0.6c-0.2-0.2-0.5-0.3-0.7-0.3c-0.2,0-0.5,0.1-0.7,0.3c-0.2,0.2-0.4,0.4-0.5,0.6L217.7,88.4z"/>
	<path class="st8" d="M261.8,75.4c0.3,0.3,0.4,0.7,0.4,1.1c0,0.4-0.1,0.8-0.4,1.1c-0.3,0.3-0.7,0.4-1.1,0.4h-9.5v9.3
		c0,0.4-0.1,0.8-0.4,1.1c-0.3,0.3-0.7,0.4-1.1,0.4c-0.4,0-0.8-0.1-1.1-0.4c-0.3-0.3-0.4-0.7-0.4-1.1v-9.3h-9.6c-0.4,0-0.7-0.2-1-0.5
		c-0.3-0.3-0.4-0.6-0.4-1c0-0.4,0.1-0.8,0.4-1.1c0.3-0.3,0.7-0.4,1.1-0.4h22C261.1,75,261.5,75.1,261.8,75.4z"/>
	<path class="st8" d="M268,88.5c-0.3,0.3-0.7,0.4-1.1,0.4c-0.4,0-0.8-0.1-1.1-0.4c-0.3-0.3-0.4-0.7-0.4-1.1V76.5
		c0-0.4,0.1-0.8,0.4-1.1c0.3-0.3,0.7-0.4,1.1-0.4c0.4,0,0.8,0.2,1.1,0.4c0.3,0.3,0.4,0.7,0.4,1.1v10.9
		C268.5,87.8,268.3,88.2,268,88.5z"/>
	<path class="st8" d="M297.7,82c0,0.8-0.1,1.6-0.4,2.4c-0.3,0.8-0.7,1.6-1.2,2.2c-0.5,0.7-1.1,1.2-1.9,1.6c-0.7,0.4-1.5,0.6-2.5,0.6
		h-14.6c-0.9,0-1.7-0.3-2.3-0.7c-0.7-0.4-1.3-1-1.7-1.6c-0.5-0.7-0.8-1.4-1.1-2.2c-0.3-0.8-0.4-1.6-0.4-2.4c0-0.8,0.1-1.6,0.4-2.4
		c0.3-0.8,0.7-1.6,1.2-2.2c0.5-0.7,1.1-1.2,1.9-1.6c0.7-0.4,1.5-0.6,2.5-0.6h14.6c0.9,0,1.7,0.3,2.3,0.7c0.7,0.4,1.3,1,1.7,1.6
		c0.5,0.7,0.8,1.4,1.1,2.2C297.6,80.4,297.7,81.2,297.7,82z M293,85.5c0.5-0.3,0.8-0.6,1.1-1c0.3-0.4,0.4-0.8,0.5-1.3
		c0.1-0.5,0.1-0.9,0.1-1.3s0-0.8-0.1-1.3c-0.1-0.5-0.3-0.9-0.5-1.3c-0.3-0.4-0.6-0.7-1.1-1c-0.5-0.3-1.1-0.4-1.8-0.4h-12.9
		c-0.7,0-1.3,0.1-1.8,0.4c-0.5,0.3-0.8,0.6-1.1,1c-0.3,0.4-0.4,0.8-0.5,1.3c-0.1,0.5-0.1,0.9-0.1,1.3s0,0.8,0.1,1.3
		c0.1,0.5,0.3,0.9,0.5,1.3c0.3,0.4,0.6,0.7,1.1,1c0.5,0.3,1.1,0.4,1.8,0.4h12.9C291.9,85.9,292.5,85.7,293,85.5z"/>
	<path class="st8" d="M323.2,75.4c0.3-0.3,0.7-0.4,1.1-0.4c0.4,0,0.8,0.2,1.1,0.4c0.3,0.3,0.4,0.7,0.4,1.1v9.3
		c0,0.9-0.3,1.6-0.9,2.2c-0.6,0.6-1.3,0.9-2.2,0.9c-0.3,0-0.6,0-0.9-0.1c-0.3-0.1-0.5-0.2-0.8-0.4l-14.7-9c-0.4-0.2-0.7-0.4-1-0.6
		c-0.3-0.1-0.5-0.2-0.7-0.2c-0.3,0-0.5,0.2-0.6,0.6c-0.1,0.4-0.1,1-0.1,1.8v6.3c0,0.4-0.1,0.8-0.4,1.1c-0.3,0.3-0.7,0.4-1.1,0.4
		c-0.4,0-0.8-0.1-1.1-0.4c-0.3-0.3-0.4-0.7-0.4-1.1v-9.3c0-0.9,0.3-1.6,0.9-2.2c0.6-0.6,1.3-0.9,2.2-0.9c0.3,0,0.6,0,0.9,0.1
		c0.3,0.1,0.5,0.2,0.8,0.4l14.7,9c0.4,0.2,0.7,0.4,1,0.6c0.3,0.1,0.5,0.2,0.7,0.2c0.3,0,0.5-0.2,0.6-0.6c0.1-0.4,0.1-1,0.1-1.8v-6.3
		C322.7,76.1,322.9,75.7,323.2,75.4z"/>
</g>
</svg>
